<?xml version="1.0" encoding="UTF-8" standalone="no"?>
<svg
   width="7.11111in"
   height="7.11111in"
   viewBox="0 0 512 512"
   version="1.1"
   id="svg3"
   sodipodi:docname="cinny.svg"
   inkscape:version="1.2.2 (b0a8486541, 2022-12-01)"
   xmlns:inkscape="http://www.inkscape.org/namespaces/inkscape"
   xmlns:sodipodi="http://sodipodi.sourceforge.net/DTD/sodipodi-0.dtd"
   xmlns="http://www.w3.org/2000/svg"
   xmlns:svg="http://www.w3.org/2000/svg">
  <defs
     id="defs7" />
  <sodipodi:namedview
     id="namedview5"
     pagecolor="#ffffff"
     bordercolor="#000000"
     borderopacity="0.25"
     inkscape:showpageshadow="2"
     inkscape:pageopacity="0.0"
     inkscape:pagecheckerboard="0"
     inkscape:deskcolor="#d1d1d1"
     inkscape:document-units="in"
     showgrid="false"
     inkscape:zoom="1.2802736"
     inkscape:cx="341.33329"
     inkscape:cy="341.33329"
     inkscape:window-width="1920"
     inkscape:window-height="1080"
     inkscape:window-x="0"
     inkscape:window-y="0"
     inkscape:window-maximized="0"
     inkscape:current-layer="svg3" />
  <path
     id="Selection #1"
     fill="none"
     stroke="black"
     stroke-width="1"
     d="M 227.00,0.21            C 227.00,0.21 277.00,0.21 277.00,0.21              287.03,0.02 296.23,2.35 306.00,4.20              306.00,4.20 316.00,5.67 316.00,5.67              316.00,5.67 327.00,8.96 327.00,8.96              327.00,8.96 335.00,10.90 335.00,10.90              345.86,14.35 356.64,18.95 367.00,23.69              392.14,35.21 417.06,52.50 436.59,72.08              468.19,103.77 490.62,140.87 502.59,184.00              502.59,184.00 506.25,196.00 506.25,196.00              506.25,196.00 512.00,233.00 512.00,233.00              512.00,233.00 512.00,277.00 512.00,277.00              511.98,287.55 509.32,297.68 507.46,308.00              500.25,348.02 481.85,386.20 456.55,418.00              438.09,441.20 416.11,459.81 391.00,475.47              376.52,484.50 351.35,496.02 335.00,501.10              335.00,501.10 327.00,503.04 327.00,503.04              327.00,503.04 316.00,506.33 316.00,506.33              316.00,506.33 307.00,507.61 307.00,507.61              296.71,509.44 287.62,511.98 277.00,512.00              277.00,512.00 233.00,512.00 233.00,512.00              223.12,511.88 213.66,508.99 204.00,507.44              204.00,507.44 195.00,506.10 195.00,506.10              195.00,506.10 169.00,497.94 169.00,497.94              98.05,472.40 43.50,420.65 16.17,350.00              16.17,350.00 5.67,316.00 5.67,316.00              5.67,316.00 4.34,307.00 4.34,307.00              2.22,296.60 0.02,287.80 0.00,277.00              0.00,277.00 0.00,235.00 0.00,235.00              0.02,224.09 2.84,213.69 4.56,203.00              4.56,203.00 5.76,195.00 5.76,195.00              5.76,195.00 9.42,183.00 9.42,183.00              28.55,110.82 83.47,51.17 151.00,20.86              175.11,10.05 200.99,4.35 227.00,0.21 Z            M 432.00,208.00            C 428.18,201.87 415.59,196.88 409.00,193.75              401.92,190.38 384.25,183.14 377.00,181.51              362.58,178.27 347.67,178.98 333.00,179.00              329.56,179.01 318.86,180.57 317.09,179.81              314.21,178.57 305.45,166.47 301.96,163.17              291.98,153.74 280.00,146.08 267.00,141.54              249.91,135.58 239.61,135.80 222.00,136.00              214.64,136.09 208.93,137.84 202.00,139.98              171.57,149.34 150.11,169.16 138.81,199.00              135.89,206.69 133.10,220.79 133.00,229.00              132.97,231.57 133.28,237.71 132.40,239.82              131.30,242.44 128.27,244.13 126.00,245.67              126.00,245.67 110.00,256.22 110.00,256.22              110.00,256.22 58.00,290.50 58.00,290.50              58.00,290.50 41.00,301.78 41.00,301.78              38.58,303.35 35.00,305.09 34.38,308.18              33.84,310.88 36.28,319.14 37.19,322.00              40.56,332.58 44.07,341.90 48.69,352.00              70.10,398.75 105.37,435.43 151.00,459.16              162.90,465.35 175.34,469.97 188.00,474.31              191.30,475.44 201.91,478.24 205.00,477.31              209.87,475.84 218.98,462.48 222.28,458.00              237.09,437.96 250.15,415.28 256.48,391.00              260.70,374.77 264.97,357.91 265.00,341.00              265.00,341.00 265.00,329.00 265.00,329.00              265.00,329.00 266.10,319.00 266.10,319.00              266.10,319.00 266.10,310.00 266.10,310.00              269.48,285.49 280.86,260.64 295.53,241.00              302.99,231.01 307.66,225.04 318.00,217.49              326.48,211.29 335.06,207.45 345.00,204.34              359.86,199.70 372.65,199.82 388.00,200.00              403.28,200.18 417.28,204.68 432.00,208.00 Z            M 265.04,169.65            C 269.70,168.67 274.86,168.51 278.81,171.65              286.17,177.50 285.51,191.31 274.00,195.15              259.67,199.93 248.16,177.30 265.04,169.65 Z" />
  <path
     style="fill:#000000;stroke-width:0.781083"
     d="m 301.10751,680.95963 c -1.28878,-0.19317 -7.61556,-1.37238 -14.05949,-2.62047 -6.44394,-1.24808 -15.22695,-2.829 -19.51781,-3.51314 -8.15863,-1.30082 -36.8439,-9.97432 -50.58484,-15.29522 C 184.01648,646.77975 151.57062,628.10652 124.1922,606.14952 112.50317,596.77512 91.642708,576.5709 81.540743,564.8398 58.568769,538.16318 39.644941,507.36948 25.86565,474.24279 21.270176,463.19484 8.886895,422.32596 7.4858616,413.58347 6.8318331,409.50231 5.4037241,401.79212 4.3122861,396.4497 1.1273525,380.85997 0.59628528,371.10752 0.97662851,335.19409 L 1.3252163,302.27914 4.1323527,287.04802 C 5.6762779,278.6709 7.3200947,269.35649 7.7852789,266.34932 9.2735967,256.72812 18.865971,225.51937 25.190714,209.7208 51.385234,144.2895 101.73983,86.14889 165.07192,48.210643 200.03133,27.268669 230.7705,15.523628 273.60824,6.7403145 c 28.75741,-5.89632906 26.46329,-5.7215068 70.19002,-5.3487836 38.79614,0.3306953 39.45901,0.3628914 49.47705,2.4031217 5.58475,1.1373646 13.66896,2.605829 17.96491,3.2632542 15.31444,2.3436219 41.19012,10.0793252 60.53394,18.0970132 43.89751,18.194783 78.27259,40.885485 109.74395,72.441055 21.38661,21.443835 38.10147,42.594915 51.88091,65.650385 16.20723,27.11761 25.19051,47.8275 35.54781,81.95126 4.5251,14.90867 5.37289,18.87397 8.9681,41.94546 l 3.97057,25.48027 v 28.52698 c 0,33.04494 -0.43372,38.36541 -5.12168,62.82855 -4.18393,21.83295 -7.53255,35.01097 -12.86071,50.61145 -9.65937,28.28193 -21.52776,52.02508 -39.43414,78.88939 -26.77475,40.16923 -62.52754,74.33262 -104.6582,100.00558 -10.74597,6.54821 -35.69655,18.95967 -49.59878,24.67247 -17.39443,7.14785 -45.05773,15.41411 -57.4096,17.15494 -3.43677,0.48437 -11.34523,1.95562 -17.57437,3.26944 l -11.3257,2.38877 -40.22578,0.16997 c -22.12418,0.0935 -41.28024,0.0119 -42.56903,-0.18126 z m -24.05634,-45.46936 c 3.9547,-2.86477 9.90519,-9.87307 18.76795,-22.10433 14.36032,-19.81828 22.72035,-33.18773 30.67369,-49.05363 9.152,-18.2571 13.26861,-29.68054 19.04422,-52.84709 6.69182,-26.84154 8.16862,-36.995 9.12729,-62.75301 1.53197,-41.16202 2.29164,-46.97859 8.67117,-66.39206 12.2489,-37.27456 39.58793,-76.85 64.68554,-93.63752 13.41758,-8.97487 30.72322,-15.79104 48.10322,-18.94641 8.03985,-1.45965 12.26696,-1.69696 30.79865,-1.7291 24.24838,-0.042 27.26073,0.34054 54.38653,6.90767 8.09686,1.96023 15.25278,3.45558 15.90206,3.32298 1.83607,-0.37496 -6.60682,-8.31425 -12.42596,-11.68477 -6.85512,-3.97056 -30.01945,-14.33303 -44.05353,-19.70717 -21.33077,-8.16828 -31.44064,-9.43339 -70.5941,-8.8339 l -27.49439,0.42098 -4.16174,-4.40725 c -2.28896,-2.42398 -6.39505,-7.16059 -9.12465,-10.52578 -11.5682,-14.26189 -32.84962,-28.63147 -52.79271,-35.64657 -17.18673,-6.04552 -34.53884,-8.37253 -56.88008,-7.62792 -10.73813,0.3579 -14.01388,0.78242 -21.80688,2.82604 -32.87698,8.62163 -58.00063,24.71934 -75.69763,48.50247 -15.99878,21.50087 -24.36652,45.81314 -25.61669,74.4287 -0.53913,12.34049 -0.68074,13.21561 -2.45324,15.16072 -1.75047,1.92093 -33.18104,22.9606 -97.17321,65.04789 -14.606253,9.60644 -27.787029,18.64806 -29.290614,20.0925 -2.545554,2.4454 -2.725006,2.93434 -2.606208,7.10097 0.354344,12.42802 15.506946,52.15579 29.465955,77.25516 27.432457,49.32566 67.085957,89.21605 116.610137,117.30675 25.28427,14.34156 65.86156,29.49686 79.6074,29.73276 2.35186,0.0404 4.03251,-0.54637 6.32782,-2.20908 z"
     id="path184"
     transform="scale(0.75000011)" />
  <path
     style="fill:#ffffff;stroke-width:0.781083"
     d="m 353.20866,258.04782 c -7.71053,-3.81663 -12.11705,-15.2869 -8.53435,-22.21509 3.13684,-6.06598 8.27793,-9.1381 15.40145,-9.20333 8.44179,-0.0773 14.3366,4.30532 16.47566,12.24918 3.55237,13.1925 -11.10315,25.22771 -23.34276,19.16924 z"
     id="path186"
     transform="scale(0.75000011)" />
  <path
     style="fill:#ffffff;stroke-width:0.781083"
     d="M 258.92903,633.48971 C 244.95131,629.82209 222.0263,621.07318 206.43227,613.4553 194.66329,607.70599 175.56053,596.22945 164.29374,588.13934 132.86599,565.57267 106.07301,537.25055 85.372625,504.71403 69.815938,480.26229 50.819389,436.15485 47.494647,416.76645 c -0.818278,-4.77183 -0.768106,-5.58914 0.457971,-7.46037 0.770466,-1.17588 14.85312,-10.98956 31.973777,-22.28135 90.263455,-59.53252 95.103085,-62.79991 96.523845,-65.16644 1.14567,-1.90833 1.53334,-4.69797 1.90677,-13.72103 1.20027,-29.00168 9.52731,-53.4283 25.72527,-75.46266 6.63715,-9.02862 19.56895,-21.2328 29.52257,-27.86144 13.57282,-9.03887 27.10622,-14.89056 46.80396,-20.23751 6.1472,-1.66866 8.14417,-1.80088 26.94737,-1.78411 22.93103,0.0204 28.70796,0.75606 43.57596,5.54887 23.68525,7.63512 43.18381,20.47984 57.93593,38.16543 3.58718,4.30049 8.10853,9.35845 10.04744,11.23991 l 3.5253,3.42083 6.89704,-0.478 c 28.08758,-1.94665 54.67982,-1.23834 69.89163,1.86163 11.78134,2.40089 37.08163,12.31093 57.82331,22.6492 7.74434,3.86001 15.98284,9.10989 15.32626,9.76646 -0.16329,0.16329 -5.21923,-0.89109 -11.23541,-2.34307 -21.33604,-5.14936 -27.17262,-6.03371 -43.28558,-6.5585 -29.01022,-0.94484 -45.13141,0.84596 -63.03109,7.00172 -22.98175,7.90349 -40.06272,20.0956 -55.70009,39.75774 -18.06674,22.71678 -32.78066,50.56222 -40.14346,75.96975 -4.55184,15.70744 -5.22858,21.9982 -6.65811,61.89141 -0.846,23.60904 -2.42112,34.35878 -8.75536,59.75285 -9.37427,37.58166 -20.77167,61.23914 -47.4138,98.41646 -15.98668,22.30834 -20.27825,26.58604 -26.60442,26.51842 -1.97613,-0.0211 -6.75634,-0.86845 -10.6227,-1.88294 z m 107.44235,-372.6233 c 8.14169,-2.87255 12.46571,-9.17214 12.43674,-18.11889 -0.0207,-6.39265 -1.70633,-10.54569 -5.7054,-14.05692 -3.76481,-3.30555 -7.67207,-4.37299 -14.70665,-4.01776 -5.15599,0.26037 -6.23495,0.6005 -9.62152,3.03307 -5.13771,3.69043 -7.44646,8.15529 -7.42411,14.35741 0.0291,8.06928 4.2584,14.8732 11.27663,18.14132 4.56421,2.12537 8.9918,2.33855 13.74431,0.66177 z"
     id="path257"
     transform="scale(0.75000011)" />
  <path
     style="fill:#000000;stroke-width:0.781083"
     d="m 353.20866,258.04782 c -8.56439,-4.23928 -12.29267,-15.75081 -7.66096,-23.65422 3.028,-5.16689 7.73446,-7.70199 14.41241,-7.76314 8.56543,-0.0784 14.43985,4.25821 16.59131,12.24812 3.55237,13.1925 -11.10315,25.22771 -23.34276,19.16924 z"
     id="path259"
     transform="scale(0.75000011)" />
  <path
     style="fill:#000000;stroke-width:0.781083"
     d="m 351.80364,256.39051 c -10.12725,-6.82695 -10.2335,-21.42274 -0.19759,-27.14221 2.64871,-1.5095 4.51362,-1.93716 8.47323,-1.94309 6.28625,-0.009 10.40047,1.94381 13.58307,6.44853 7.37758,10.4424 -0.73007,25.17529 -13.85422,25.17529 -3.48906,0 -4.90485,-0.449 -8.00449,-2.53852 z"
     id="path261"
     transform="scale(0.75000011)" />
  <path
     style="fill:#ffffff;stroke-width:0.781083"
     d="M 258.92903,633.48971 C 236.04291,627.48462 207.32389,615.09704 184.95249,601.58088 120.66127,562.73799 76.033849,506.06063 51.833551,432.51827 c -1.880974,-5.7161 -3.839391,-12.83889 -4.352039,-15.82842 -0.867445,-5.05855 -0.821564,-5.58497 0.661574,-7.59054 0.876513,-1.18527 28.627143,-19.98197 61.668064,-41.77044 33.04092,-21.78846 61.81061,-41.13836 63.93263,-42.99977 l 3.85823,-3.38438 0.63259,-12.06658 c 1.64264,-31.33328 9.75621,-54.70396 26.94057,-77.6008 10.38087,-13.83172 28.41872,-28.23531 45.18811,-36.08363 9.74113,-4.55899 25.96582,-9.94487 35.15036,-11.66837 5.73724,-1.0766 10.24685,-1.24582 24.96687,-0.93688 20.95351,0.43977 27.30807,1.4099 42.5621,6.4978 22.46381,7.49269 41.3691,20.19192 56.14265,37.71261 3.85254,4.56892 8.41274,9.67067 10.13377,11.33723 l 3.12916,3.0301 6.89335,-0.47782 c 28.01786,-1.94206 54.67677,-1.23801 69.79714,1.84333 11.97107,2.43955 36.11704,11.81381 56.60191,21.97473 8.78308,4.35659 17.34044,9.75745 16.61289,10.48501 -0.17736,0.17735 -4.67877,-0.74131 -10.00313,-2.04146 -22.33495,-5.454 -28.49007,-6.40962 -44.49229,-6.90768 -28.56054,-0.88896 -44.11526,0.78135 -61.62889,6.61787 -29.63666,9.87658 -48.2423,25.3272 -69.99835,58.12849 -14.22509,21.44697 -24.24451,44.31114 -29.77857,67.95422 -2.10811,9.00648 -2.99481,20.19555 -4.14721,52.33257 -0.84105,23.45412 -2.5671,35.03827 -9.01588,60.50863 -5.88582,23.24691 -11.35867,37.91145 -20.85187,55.87274 -12.11833,22.92808 -38.03081,59.79622 -46.17256,65.69408 -3.90816,2.83105 -7.56508,2.90252 -17.3357,0.3388 z M 366.24219,260.912 c 7.9448,-2.8031 12.58309,-9.50212 12.58309,-18.17362 0,-5.72847 -1.15859,-8.96256 -4.62519,-12.9108 -3.58601,-4.08425 -8.02985,-5.54822 -15.52444,-5.11437 -5.27546,0.30539 -6.61143,0.69471 -9.71771,2.83189 -5.26591,3.62305 -7.96958,9.4432 -7.44168,16.01966 0.62773,7.82024 4.44382,13.53532 11.11081,16.63988 4.52685,2.10797 8.98837,2.33976 13.61512,0.70736 z"
     id="path263"
     transform="scale(0.75000011)" />
</svg>
